if (_typeface_js && _typeface_js.loadFace) _typeface_js.loadFace({"glyphs":{"S":{"x_min":19,"x_max":536,"ha":555,"o":"m 465 398 q 462 404 463 399 q 313 548 453 514 q 149 578 242 556 q 115 585 136 581 q 19 687 19 619 q 54 796 19 735 q 129 884 86 851 q 204 931 155 903 q 299 955 260 955 q 343 948 283 955 q 428 841 428 938 q 422 809 428 824 q 393 800 407 800 q 358 819 377 800 q 354 863 358 845 q 299 894 354 894 q 166 831 232 894 q 90 699 100 769 q 87 692 90 698 q 85 685 85 687 q 129 651 85 659 q 208 630 149 644 q 370 599 283 616 q 485 526 439 578 q 536 398 536 469 q 521 333 536 370 q 488 280 507 297 l 492 287 q 489 274 490 283 q 284 151 421 194 q 266 147 270 147 l 234 147 q 167 165 202 147 q 118 210 127 184 q 79 329 79 262 q 92 392 79 351 q 109 454 105 433 l 109 465 q 124 487 115 472 q 172 482 155 487 l 174 482 l 177 480 q 153 502 167 488 q 182 470 160 494 l 183 469 q 182 437 185 452 q 168 419 177 430 q 145 327 145 356 q 172 245 145 283 q 241 208 198 208 l 262 208 q 300 220 257 208 q 409 287 359 237 q 465 398 465 341 "},"/":{"x_min":49.0625,"x_max":392.171875,"ha":404,"o":"m 367 730 q 257 441 360 712 q 223 348 249 416 q 129 91 129 110 q 123 56 129 81 q 114 47 111 47 l 104 43 q 79 39 98 39 q 49 55 65 39 l 49 72 q 56 33 49 33 q 76 67 63 33 q 144 285 90 102 q 233 552 197 465 q 234 563 233 556 q 305 780 305 729 q 348 811 317 811 q 378 797 367 811 q 392 766 381 787 q 367 730 384 754 "},"K":{"x_min":43.953125,"x_max":643,"ha":651,"o":"m 320 697 q 643 317 425 568 l 643 307 q 606 267 643 267 q 569 285 585 267 l 565 293 q 562 302 564 296 q 412 493 418 488 q 247 670 322 603 q 190 643 223 659 q 140 610 158 627 q 127 365 127 509 q 127 309 127 339 q 110 284 121 303 q 75 276 102 284 q 43 315 53 295 q 50 335 45 321 q 63 623 63 357 l 72 623 q 71 638 69 632 q 99 904 79 724 q 130 917 125 917 q 170 897 143 917 q 143 695 143 793 l 143 688 q 497 821 254 757 q 535 836 504 822 q 572 848 561 848 q 595 843 585 848 l 603 831 q 605 832 605 831 l 609 819 q 599 792 603 797 q 576 776 591 779 q 391 725 530 769 q 320 697 358 715 "},"7":{"x_min":19.375,"x_max":410.046875,"ha":436,"o":"m 326 336 q 392 336 380 336 q 410 298 399 324 q 359 262 393 262 q 338 264 352 262 q 317 267 324 267 l 313 267 l 313 210 q 316 141 316 218 q 327 130 320 138 q 279 94 310 94 q 253 103 272 94 l 246 117 l 245 116 l 245 120 q 248 139 242 131 l 248 270 l 237 270 q 159 283 250 270 q 136 298 152 287 l 136 315 q 149 337 136 324 q 172 351 163 351 q 231 336 186 351 l 249 336 q 249 441 249 353 q 263 495 263 469 l 263 742 q 62 704 95 704 q 30 713 57 704 l 22 726 q 19 749 19 738 q 42 772 27 756 q 193 792 84 777 q 277 810 208 795 l 279 812 l 284 816 q 301 822 294 822 q 329 805 317 822 q 342 772 342 788 l 342 763 l 326 753 q 326 701 326 738 l 326 336 "},"d":{"x_min":33,"x_max":494.5,"ha":538,"o":"m 476 304 l 478 308 q 494 173 482 266 q 445 150 468 154 q 253 128 335 128 q 141 160 193 128 q 64 247 90 193 q 35 340 52 272 q 33 357 33 351 l 42 405 q 136 549 60 496 q 276 618 184 582 q 402 638 364 638 q 419 632 407 636 q 399 917 399 697 q 407 922 406 921 l 411 925 q 427 935 419 931 q 435 931 434 932 l 441 929 q 460 919 449 928 q 470 867 470 896 q 470 693 470 815 q 470 508 470 560 q 476 304 470 333 m 421 229 q 417 288 421 248 q 413 347 413 328 l 413 571 q 357 577 398 577 q 266 550 328 577 q 178 503 204 524 q 100 350 100 442 q 131 261 100 305 q 203 197 162 216 q 259 189 221 189 q 387 202 308 189 q 419 214 398 207 l 421 229 "},",":{"x_min":248,"x_max":354,"ha":331,"o":"m 309 -128 q 275 -105 288 -128 q 286 -76 277 -93 l 283 -75 q 262 -66 279 -73 q 248 -34 248 -43 q 271 3 248 -14 q 314 22 294 22 q 339 12 321 22 q 345 -9 341 5 q 354 -55 354 -37 q 341 -100 354 -78 q 309 -128 328 -128 "},"Y":{"x_min":14,"x_max":566.4375,"ha":528,"o":"m 554 884 q 501 806 528 857 q 458 719 480 763 q 373 549 437 675 l 366 514 q 365 482 365 509 l 365 313 q 365 252 365 292 q 381 195 365 214 q 379 145 384 163 q 347 133 358 133 q 332 135 342 133 q 317 137 323 137 q 293 160 312 142 q 296 185 301 175 q 296 500 296 268 q 277 520 296 504 q 275 541 277 527 q 42 870 118 717 q 14 906 31 889 l 14 935 q 43 950 41 950 l 78 950 q 320 596 163 767 q 473 899 369 698 q 480 920 475 906 q 521 941 495 941 q 561 922 535 941 q 566 897 561 909 q 554 884 559 888 "},"E":{"x_min":24,"x_max":509.78125,"ha":488,"o":"m 106 180 q 422 231 196 191 q 453 243 430 232 q 472 245 464 245 q 493 242 484 245 q 499 231 497 235 l 501 224 q 509 217 502 221 q 497 183 512 198 q 464 169 483 169 q 456 170 461 169 q 449 171 452 171 q 310 146 488 171 q 111 114 214 132 q 66 105 57 105 q 24 134 41 105 l 24 146 q 40 170 24 156 l 40 503 q 51 577 51 514 l 55 579 l 55 881 q 57 892 55 884 q 60 904 60 900 q 59 928 60 918 q 86 967 59 943 l 127 953 l 127 945 q 258 945 166 945 q 328 953 271 945 q 346 915 346 936 q 322 875 346 899 l 302 880 l 264 880 q 124 878 137 880 q 116 724 116 797 l 116 570 q 243 586 125 570 q 273 598 262 598 q 284 595 279 598 l 287 594 l 286 594 l 296 586 q 313 564 299 581 q 301 529 301 540 l 106 504 q 106 184 106 253 l 106 180 "},"y":{"x_min":20.109375,"x_max":609,"ha":623,"o":"m 534 182 q 488 96 523 141 q 415 37 452 51 q 391 24 405 26 q 323 16 346 16 l 296 16 q 265 22 279 16 q 71 181 112 55 q 31 365 31 243 q 31 386 31 371 q 31 416 31 404 q 20 465 31 446 q 44 491 25 483 q 81 500 52 493 l 103 476 q 96 410 96 450 q 101 333 96 371 q 110 269 110 276 q 123 231 118 250 q 186 132 139 174 q 292 84 233 91 q 316 80 326 79 q 463 182 413 80 q 503 361 503 263 q 493 418 503 397 q 489 433 489 425 q 540 471 489 471 q 564 455 552 471 l 570 447 q 573 440 571 443 l 573 437 q 574 369 574 448 q 609 121 609 147 l 609 53 q 598 2 609 32 q 575 -40 587 -28 q 444 -128 551 -64 q 326 -158 381 -158 q 294 -155 315 -158 q 263 -152 274 -152 q 225 -133 252 -152 q 225 -118 228 -122 l 236 -102 l 201 -102 q 269 -80 259 -80 q 297 -90 265 -80 q 356 -90 333 -90 q 433 -61 379 -90 q 506 -16 478 -38 q 540 39 519 -6 l 540 86 q 538 127 542 102 q 538 168 538 157 q 534 182 537 175 "},"\"":{"x_min":296.9375,"x_max":484.8125,"ha":454,"o":"m 453 909 q 414 928 426 909 l 414 1065 q 456 1074 441 1074 q 483 1049 473 1069 q 478 1001 478 1031 q 484 921 478 999 q 453 909 471 909 m 347 880 q 309 911 309 880 q 304 964 309 927 q 302 988 307 974 q 296 1007 296 1001 l 296 1029 q 338 1045 326 1045 q 349 1043 343 1045 l 352 1042 q 373 946 364 1008 q 378 936 373 943 q 383 922 383 928 l 383 893 q 347 880 363 880 "},"g":{"x_min":27,"x_max":633,"ha":671,"o":"m 569 191 q 409 40 491 78 q 323 18 360 18 l 290 18 q 159 56 222 18 q 66 155 96 94 q 47 211 54 182 q 27 302 27 241 q 230 619 27 538 q 420 692 282 640 q 436 697 431 697 q 482 673 447 697 q 526 640 514 652 q 552 590 534 622 q 626 408 626 501 l 626 215 q 633 148 633 204 q 624 94 633 119 q 525 -100 604 -76 q 465 -136 506 -119 q 399 -163 413 -156 q 360 -183 364 -181 q 318 -165 345 -183 l 318 -144 q 331 -127 318 -138 q 352 -112 345 -115 q 454 -75 429 -87 q 533 -2 517 -44 q 542 19 536 4 q 563 111 551 50 q 569 152 569 165 l 569 191 m 552 440 q 522 513 544 465 q 469 601 503 543 q 412 629 455 613 l 403 632 q 324 611 376 632 q 285 591 316 607 q 92 309 92 495 q 105 232 92 261 q 198 107 135 140 q 292 78 248 78 l 316 78 q 406 109 356 78 q 480 173 450 137 q 559 337 559 271 q 552 440 559 379 "},"e":{"x_min":30,"x_max":536,"ha":566,"o":"m 534 342 l 533 333 l 519 275 q 441 132 515 255 q 315 89 390 89 q 291 94 307 89 q 269 99 276 99 q 127 177 183 111 q 92 220 118 189 q 46 323 73 254 q 30 445 30 391 q 117 686 30 604 q 244 750 185 750 q 393 726 303 750 q 401 718 398 723 q 471 646 447 701 q 514 551 484 619 q 531 521 518 541 q 489 492 506 492 q 473 495 484 492 q 458 499 463 499 q 224 503 412 503 l 219 507 q 186 507 200 509 l 166 507 q 153 508 161 507 l 133 512 q 98 516 129 514 q 94 455 94 490 q 202 193 94 271 q 327 153 258 153 q 410 198 379 153 q 455 288 432 243 q 461 331 461 312 q 478 391 461 369 q 516 397 488 397 q 536 351 536 367 q 534 342 536 348 m 439 564 q 345 680 413 653 q 262 692 291 692 q 175 653 219 692 q 117 575 138 621 q 168 564 149 564 l 439 564 "},"J":{"x_min":19,"x_max":514.6875,"ha":560,"o":"m 475 334 q 401 271 453 298 q 293 244 380 260 l 289 243 q 277 242 281 242 q 105 318 154 242 q 19 593 19 455 q 69 625 41 625 q 93 612 82 625 q 104 587 104 600 q 97 569 104 579 l 95 563 q 91 540 91 558 q 122 422 91 493 q 190 322 154 347 q 233 308 209 308 q 243 305 237 308 q 252 303 250 303 q 264 304 256 303 q 275 306 271 306 l 281 306 q 296 309 285 306 q 312 313 308 313 q 430 398 412 324 q 438 423 434 407 q 448 515 448 493 q 372 816 448 636 q 367 836 367 829 q 383 864 367 847 l 412 864 q 439 833 430 864 q 490 673 467 782 q 514 501 514 565 q 475 334 514 400 "},"‐":{"x_min":125.5,"x_max":496,"ha":555,"o":"m 494 484 l 493 481 l 493 474 q 457 463 468 463 q 441 465 452 463 q 427 468 431 468 q 317 464 434 468 q 226 464 287 464 q 207 464 215 464 l 199 464 q 194 465 196 465 q 132 476 151 465 l 128 483 q 129 481 128 483 l 129 481 l 125 488 q 171 508 129 508 q 212 508 173 508 l 252 508 q 434 508 291 508 q 450 520 448 520 q 464 518 456 520 l 479 518 q 496 492 496 498 q 494 484 496 490 "},"q":{"x_min":35,"x_max":555,"ha":532,"o":"m 422 171 l 436 172 l 467 178 q 518 185 507 185 q 541 169 528 185 q 555 140 555 153 q 552 128 555 133 l 552 129 l 543 117 q 512 107 520 107 q 483 110 502 107 q 453 113 463 113 q 449 111 452 111 l 440 109 q 424 107 430 107 q 433 -37 424 29 q 443 -68 443 -56 q 399 -111 443 -111 q 359 -88 382 -111 q 361 -65 359 -80 q 363 -41 363 -50 l 363 48 q 357 97 361 56 l 297 87 q 259 81 263 81 q 219 97 240 81 l 219 112 q 247 146 219 137 q 361 165 285 153 q 359 259 359 176 q 228 219 299 219 l 190 219 q 137 231 198 219 q 35 406 35 300 q 209 669 35 535 q 258 689 223 679 q 311 700 293 700 q 337 698 329 700 q 361 706 344 706 q 390 701 377 706 q 413 676 413 688 q 413 464 413 634 q 413 244 413 328 q 422 171 413 204 m 344 639 q 326 644 332 644 q 180 559 258 644 q 101 406 101 474 q 135 316 101 349 q 225 283 169 283 q 335 331 300 283 q 344 359 341 342 q 344 639 344 455 "},"b":{"x_min":35.3125,"x_max":609,"ha":629,"o":"m 137 573 q 190 587 155 579 q 368 603 300 603 q 397 597 380 603 q 548 523 488 587 q 609 365 609 458 q 598 298 609 323 q 565 241 595 289 q 514 196 522 201 q 458 157 482 168 q 380 133 440 151 q 262 103 278 103 q 253 104 257 103 q 190 89 180 89 q 176 83 180 89 q 144 96 159 83 l 138 106 q 140 104 140 106 l 138 107 q 136 118 136 112 q 141 136 136 124 l 147 148 q 96 472 147 208 q 78 533 89 510 q 51 682 77 544 q 35 787 47 705 q 46 804 39 797 l 51 808 q 58 817 54 811 l 72 817 q 102 797 85 817 q 137 573 102 776 m 149 513 q 214 158 164 459 q 302 169 244 161 q 389 197 335 180 q 435 211 408 201 q 511 272 489 246 q 544 363 544 312 q 507 472 544 422 q 384 540 436 540 q 364 543 380 540 q 149 513 193 543 "},"D":{"x_min":22,"x_max":523,"ha":554,"o":"m 300 289 q 187 253 271 279 l 185 250 q 176 242 183 248 l 168 242 q 155 239 159 239 q 112 267 139 239 q 113 277 112 271 q 115 287 115 283 q 101 332 115 282 q 95 398 101 350 q 72 533 88 439 q 59 668 59 593 q 39 889 59 779 q 30 917 38 897 q 22 947 22 937 q 39 975 22 965 q 73 987 43 978 q 115 974 92 974 q 358 887 256 961 q 497 672 472 805 q 523 558 523 592 q 453 389 523 467 q 300 289 391 318 m 103 914 q 112 874 106 903 q 130 646 130 758 q 142 532 130 615 q 180 317 151 476 q 217 329 188 319 l 255 342 q 383 414 332 367 q 447 537 447 473 q 453 554 453 550 q 425 673 453 576 q 358 792 392 746 q 103 914 284 890 "},"z":{"x_min":27,"x_max":647,"ha":638,"o":"m 645 170 l 644 166 q 611 144 627 144 q 589 149 607 144 l 568 151 l 524 151 q 379 151 440 151 q 236 151 339 151 q 217 143 232 146 l 206 140 q 196 139 200 139 q 180 141 191 139 q 164 143 169 143 q 141 164 157 149 l 141 184 q 155 207 141 196 l 158 210 q 277 406 192 275 q 385 608 357 532 q 377 600 380 609 l 127 600 q 93 594 115 591 q 62 598 71 598 q 27 617 46 598 l 27 639 q 62 663 51 663 q 94 660 71 663 q 128 658 116 657 q 232 663 176 663 l 263 663 q 299 668 253 668 q 400 668 345 668 q 456 670 429 668 q 474 642 460 661 q 311 336 425 502 q 237 213 283 296 l 304 214 q 343 214 300 214 q 369 214 343 214 q 430 220 383 216 l 491 223 q 539 223 505 223 l 615 223 l 632 214 q 647 181 647 188 q 645 170 647 177 "},"w":{"x_min":19,"x_max":604,"ha":654,"o":"m 168 259 q 212 506 186 347 q 209 527 209 516 q 246 568 209 568 q 290 541 273 568 q 346 487 305 527 q 528 282 442 388 q 528 515 528 479 q 528 586 528 551 q 528 651 528 619 l 528 656 q 524 671 524 664 q 532 702 524 683 q 561 714 555 714 q 604 673 604 714 q 599 648 604 683 q 594 572 594 614 q 595 556 594 568 q 597 534 597 544 l 597 505 l 597 175 l 581 155 q 559 146 573 146 q 519 164 539 146 q 431 293 483 233 q 327 411 402 325 q 275 463 304 438 q 267 420 271 452 q 265 386 265 411 q 231 218 251 327 q 220 152 228 200 q 226 137 226 144 q 211 111 226 123 q 183 100 197 100 q 170 106 176 100 q 142 129 150 106 q 142 148 140 137 q 91 355 110 252 q 85 363 89 358 l 57 477 q 19 587 39 540 l 19 607 q 51 627 36 627 q 91 618 59 627 l 174 300 l 168 259 "},"$":{"x_min":152.96875,"x_max":479,"ha":494,"o":"m 358 597 l 358 433 q 479 281 479 372 q 440 204 479 240 q 364 162 408 172 q 363 131 363 147 q 371 67 363 98 q 331 44 357 44 q 295 60 313 44 q 295 157 295 112 q 171 197 254 157 l 164 204 l 161 208 q 153 218 160 211 q 165 247 150 234 q 196 261 180 261 q 224 247 210 261 l 226 244 q 295 219 251 230 l 295 386 l 213 433 q 167 512 167 466 q 196 589 167 541 q 251 653 225 637 q 294 681 254 657 q 294 766 294 734 q 295 808 294 797 q 330 827 315 827 l 345 827 l 358 813 l 362 807 q 362 770 362 793 l 358 767 l 358 687 l 372 682 q 399 670 391 677 q 419 641 408 663 q 431 612 431 619 l 431 597 q 423 579 423 588 q 408 577 410 579 q 395 575 401 575 q 358 597 375 575 m 294 608 q 256 562 276 591 q 235 509 235 527 q 287 465 235 490 l 294 462 l 294 608 m 358 354 l 358 230 q 359 223 359 227 q 408 281 408 248 q 358 354 408 316 "},"\\":{"x_min":46,"x_max":389,"ha":363,"o":"m 352 36 q 315 52 341 38 q 308 90 312 66 q 179 441 270 217 q 69 730 112 604 q 46 766 62 741 q 67 805 52 780 l 73 806 l 77 808 q 89 811 82 811 q 130 781 118 811 q 202 565 144 709 q 303 311 229 499 q 379 102 322 256 q 389 72 389 77 l 389 56 q 352 36 374 36 "},"æ":{"x_min":22,"x_max":860,"ha":857,"o":"m 610 769 q 644 719 634 753 q 689 553 689 652 q 660 401 689 516 q 634 360 646 374 q 578 283 629 348 q 783 209 673 209 q 803 210 790 209 q 823 211 816 211 q 849 195 838 211 q 860 163 860 179 q 847 136 860 148 q 819 125 834 125 q 802 130 813 125 q 785 135 790 135 q 520 240 644 135 q 406 197 441 196 q 365 198 408 198 l 321 200 q 291 207 324 200 q 149 269 239 217 q 118 291 141 277 q 49 375 77 322 q 22 480 22 428 q 24 497 22 485 q 27 514 27 509 q 57 598 31 546 q 186 735 99 681 q 347 812 238 769 q 459 825 445 825 q 610 777 571 825 l 610 769 m 525 331 q 588 408 550 356 q 621 544 621 508 q 603 644 621 591 q 552 730 582 702 q 502 744 527 744 l 472 744 q 430 688 448 728 q 413 616 413 648 q 506 349 413 476 q 525 331 514 344 m 399 763 q 309 734 372 759 q 298 724 305 731 q 156 631 212 689 q 90 480 90 562 q 224 302 90 372 q 355 261 305 261 l 396 261 q 471 288 426 261 q 353 555 353 426 q 343 616 343 603 q 345 628 343 620 q 347 639 347 635 q 399 763 347 695 "},"-":{"x_min":125.5,"x_max":496,"ha":555,"o":"m 494 484 l 493 481 l 493 474 q 457 463 468 463 q 441 465 452 463 q 427 468 431 468 q 317 464 434 468 q 226 464 287 464 q 207 464 215 464 l 199 464 q 194 465 196 465 q 132 476 151 465 l 128 483 q 129 481 128 483 l 129 481 l 125 488 q 171 508 129 508 q 212 508 173 508 l 252 508 q 434 508 291 508 q 450 520 448 520 q 464 518 456 520 l 479 518 q 496 492 496 498 q 494 484 496 490 "},"Q":{"x_min":22,"x_max":700.328125,"ha":738,"o":"m 693 537 q 684 520 690 530 q 550 318 684 408 q 592 241 584 255 q 647 176 619 200 q 648 169 647 171 l 648 167 q 649 154 649 160 q 609 120 649 120 q 577 132 596 120 q 490 289 546 187 q 381 260 410 260 l 335 260 q 121 357 220 260 q 22 572 22 455 q 35 676 22 565 q 290 965 106 901 q 378 986 350 986 q 412 975 385 984 q 419 957 418 966 q 540 915 479 936 q 663 789 622 877 q 700 611 700 711 q 693 537 700 573 m 626 687 q 550 827 599 782 q 459 873 503 869 q 396 893 438 882 q 365 898 374 895 q 339 912 347 902 q 160 780 239 898 q 90 575 90 673 q 175 397 90 475 q 356 321 257 321 q 461 346 395 321 q 351 552 433 397 q 393 579 373 579 q 422 562 414 579 q 520 377 445 518 q 632 614 632 444 q 626 687 632 645 "},"M":{"x_min":27,"x_max":855,"ha":882,"o":"m 110 808 l 144 527 q 144 405 144 487 q 164 286 144 336 q 124 256 157 256 q 112 257 120 256 l 110 258 q 96 267 99 264 l 94 271 q 91 274 94 272 l 92 295 q 89 292 92 293 q 91 297 91 295 q 77 443 86 335 q 37 869 58 670 q 32 882 37 873 q 27 897 27 891 l 27 908 q 66 935 44 935 q 106 925 77 935 q 110 905 106 918 l 110 904 q 353 597 232 775 q 592 954 592 914 q 627 981 613 981 l 656 981 q 672 960 661 975 q 676 930 679 946 q 800 504 736 804 q 844 314 811 452 l 855 303 l 855 274 q 814 256 829 256 q 801 257 807 256 l 796 259 l 784 259 q 717 565 762 378 q 632 868 658 815 q 555 757 609 832 q 385 525 496 682 q 352 507 372 507 q 314 515 340 507 q 306 545 311 526 q 110 808 246 650 "},"C":{"x_min":22,"x_max":539.421875,"ha":508,"o":"m 525 332 q 513 314 519 321 l 504 310 l 506 310 q 498 307 504 308 q 318 239 427 239 q 72 381 178 239 q 66 392 69 385 l 65 396 q 46 435 60 405 q 37 476 37 456 q 30 521 34 487 q 22 616 22 591 q 61 817 22 723 q 184 977 105 924 q 307 1008 228 1008 q 470 940 415 1008 q 461 913 470 927 l 450 907 l 453 907 q 441 904 448 904 q 422 909 437 904 q 393 931 401 926 q 310 951 366 951 q 226 931 258 951 q 164 870 199 914 q 111 774 125 817 q 86 626 86 694 q 106 455 86 493 q 284 305 166 346 q 292 303 287 304 l 314 303 q 434 340 389 303 q 497 383 476 383 q 510 380 501 383 q 523 378 519 378 q 539 358 528 371 q 525 332 533 348 "},"œ":{"x_min":22,"x_max":860,"ha":857,"o":"m 610 769 q 644 719 634 753 q 689 553 689 652 q 660 401 689 516 q 634 360 646 374 q 578 283 629 348 q 783 209 673 209 q 803 210 790 209 q 823 211 816 211 q 849 195 838 211 q 860 163 860 179 q 847 136 860 148 q 819 125 834 125 q 802 130 813 125 q 785 135 790 135 q 520 240 644 135 q 406 197 441 196 q 365 198 408 198 l 321 200 q 291 207 324 200 q 149 269 239 217 q 118 291 141 277 q 49 375 77 322 q 22 480 22 428 q 24 497 22 485 q 27 514 27 509 q 57 598 31 546 q 186 735 99 681 q 347 812 238 769 q 459 825 445 825 q 610 777 571 825 l 610 769 m 525 331 q 588 408 550 356 q 621 544 621 508 q 603 644 621 591 q 552 730 582 702 q 502 744 527 744 l 472 744 q 430 688 448 728 q 413 616 413 648 q 506 349 413 476 q 525 331 514 344 m 399 763 q 309 734 372 759 q 298 724 305 731 q 156 631 212 689 q 90 480 90 562 q 224 302 90 372 q 355 261 305 261 l 396 261 q 471 288 426 261 q 353 555 353 426 q 343 616 343 603 q 345 628 343 620 q 347 639 347 635 q 399 763 347 695 "},"[":{"x_min":26,"x_max":370.15625,"ha":365,"o":"m 74 735 l 73 736 q 68 753 68 742 l 68 777 q 111 791 120 791 q 173 791 128 791 q 237 791 220 791 q 300 783 272 791 q 313 780 311 780 q 323 781 317 780 q 333 783 329 783 q 370 747 351 783 q 362 728 362 738 q 323 722 342 722 q 308 726 318 722 q 295 731 298 731 q 239 731 293 731 l 184 731 q 145 733 158 731 q 145 626 145 658 q 141 546 145 582 q 104 279 141 449 q 217 277 126 277 q 307 277 269 277 l 319 263 q 324 225 324 243 q 287 207 314 207 q 277 209 283 207 l 266 210 q 244 213 261 212 l 201 213 q 137 212 201 212 l 73 212 q 30 225 58 212 q 26 247 26 238 q 34 282 26 254 q 43 320 42 315 q 69 467 57 352 q 80 623 80 569 q 76 684 80 651 q 74 735 78 713 "},"L":{"x_min":44.671875,"x_max":512,"ha":492,"o":"m 117 308 q 122 304 119 307 l 110 308 l 114 309 q 164 314 143 314 q 221 320 118 320 q 453 340 298 320 q 478 349 473 349 l 491 349 q 498 339 497 343 l 502 336 q 512 331 503 335 l 512 288 q 467 274 484 274 q 456 277 463 274 q 448 280 449 280 q 384 275 422 280 q 319 265 357 272 q 146 251 248 265 q 117 246 138 250 l 100 243 q 88 242 92 242 q 50 254 68 242 q 45 288 42 268 q 50 297 49 292 q 85 594 66 424 q 93 854 93 665 q 95 944 93 904 q 131 973 105 964 q 152 901 152 957 q 152 598 152 835 q 131 436 148 565 q 117 337 116 325 l 117 308 "},"!":{"x_min":74.796875,"x_max":296.328125,"ha":311,"o":"m 187 402 q 161 412 174 402 q 148 435 148 422 q 116 668 148 474 q 74 854 106 732 l 77 871 q 114 895 95 895 q 139 885 120 895 q 216 467 168 742 q 226 439 226 449 q 187 402 226 402 m 276 189 q 201 153 251 153 l 184 153 q 150 171 172 153 q 123 203 129 190 q 117 247 117 236 q 138 318 117 286 q 184 353 167 343 q 219 354 195 351 q 296 246 296 311 q 276 189 296 219 m 216 272 q 198 286 201 284 l 195 286 q 182 243 182 265 q 206 217 182 217 q 219 228 212 217 q 226 245 226 239 q 216 272 226 261 "}," ":{"x_min":0,"x_max":0,"ha":681},"X":{"x_min":10.578125,"x_max":607,"ha":625,"o":"m 560 289 q 529 297 549 289 q 512 326 523 308 q 316 556 440 417 q 167 309 273 494 q 139 297 149 297 q 90 323 103 297 q 107 351 93 333 q 123 374 120 369 q 266 612 139 405 q 244 641 262 620 q 10 908 141 763 q 58 939 26 939 q 105 901 67 939 q 148 855 120 886 l 305 676 q 472 947 316 691 q 527 992 472 992 q 555 972 535 992 q 552 923 555 932 q 537 915 545 920 q 354 620 485 823 q 451 511 357 615 q 559 381 485 473 q 597 349 571 366 q 607 312 607 331 q 560 289 593 289 "},"P":{"x_min":23.21875,"x_max":520,"ha":517,"o":"m 76 419 q 23 452 47 419 q 44 487 28 477 q 84 498 51 491 l 84 511 q 69 729 69 620 q 57 899 57 751 q 45 923 45 917 l 45 947 q 113 969 77 969 q 247 956 171 969 q 367 920 322 944 l 373 917 q 473 844 427 902 q 520 729 520 786 q 396 559 520 629 q 330 522 378 548 q 150 451 277 500 q 173 230 160 370 q 184 208 175 223 q 147 169 175 169 q 115 177 141 169 q 98 214 100 199 l 98 425 q 76 419 87 419 m 430 790 q 363 856 403 836 q 276 884 337 870 q 261 890 265 887 l 257 893 l 254 893 q 164 908 188 908 q 114 901 124 908 l 119 906 q 110 917 110 910 q 112 925 110 920 l 112 925 q 126 913 122 925 l 126 514 l 132 514 q 247 557 166 520 q 378 620 359 608 q 451 740 451 670 q 430 790 451 755 "},"%":{"x_min":158,"x_max":542,"ha":558,"o":"m 249 482 q 185 511 212 482 q 158 578 158 540 q 218 649 158 649 q 242 643 229 649 q 292 614 266 647 q 319 555 319 582 q 297 505 319 529 q 249 482 275 482 m 479 218 l 460 218 q 403 243 430 218 q 373 299 377 269 q 372 321 372 309 q 380 371 372 342 q 403 413 389 407 q 437 426 431 426 l 457 426 q 505 373 472 407 q 529 334 517 363 q 542 288 542 305 q 523 240 542 262 q 479 218 505 218 m 422 669 q 421 675 421 672 q 425 661 425 669 q 422 646 425 654 l 415 626 q 406 590 406 598 q 332 199 395 491 q 328 151 328 180 q 296 139 300 139 q 255 151 280 139 q 249 198 249 180 q 257 227 249 206 q 269 234 259 230 q 275 248 270 238 q 325 494 280 277 q 340 610 325 519 q 361 679 347 654 q 393 689 380 689 q 415 682 401 689 l 422 669 m 229 583 q 226 576 227 580 q 243 547 226 559 q 246 558 246 552 q 229 583 246 571 m 461 320 q 445 335 452 328 q 443 319 443 323 q 468 283 443 291 q 471 290 471 288 q 461 320 471 294 "},"#":{"x_min":105.921875,"x_max":590.28125,"ha":619,"o":"m 476 389 q 542 378 546 378 q 568 376 556 378 q 590 351 590 362 l 590 326 q 550 304 568 304 q 477 323 558 304 q 477 299 475 311 q 481 284 481 294 l 481 257 q 438 239 457 239 q 401 291 401 239 l 405 304 q 408 336 408 308 q 288 357 387 338 l 288 355 q 293 336 288 350 q 299 316 299 323 l 299 299 l 293 294 l 292 291 q 256 278 282 278 q 219 343 219 278 l 219 371 q 159 386 207 376 q 105 410 123 394 l 105 436 q 150 454 142 454 q 216 436 145 454 q 214 487 216 457 q 153 495 199 488 q 126 514 140 497 l 126 538 q 173 554 158 554 q 191 552 180 554 q 210 550 203 550 l 213 548 l 213 679 l 251 692 l 269 692 q 288 665 279 692 q 282 595 282 637 q 284 593 282 602 q 284 566 284 583 l 284 538 q 399 525 350 525 q 377 655 391 577 q 361 704 361 710 l 361 722 q 377 737 365 728 q 404 742 409 742 l 417 742 q 436 719 424 735 q 452 646 443 679 q 470 518 458 602 q 546 514 507 514 q 567 490 567 501 l 567 460 q 561 445 561 455 l 513 445 q 498 450 504 445 l 496 452 q 476 454 493 454 l 476 451 q 476 389 476 431 m 288 476 l 288 422 q 404 400 363 408 l 404 460 q 288 476 363 465 "},"+":{"x_min":139,"x_max":489.359375,"ha":514,"o":"m 245 641 l 250 646 q 280 655 265 655 q 311 643 290 655 q 311 520 311 556 q 384 526 322 526 q 456 542 424 526 q 482 533 474 532 q 488 484 492 502 q 465 465 479 472 q 318 465 455 465 q 322 402 318 436 l 329 343 q 332 330 329 339 q 335 314 335 320 q 294 280 335 280 q 254 296 281 280 q 254 463 254 317 l 220 463 q 157 470 231 463 q 139 488 149 476 l 139 505 l 151 517 q 147 516 149 516 l 148 518 q 182 531 160 531 q 242 524 176 531 l 242 603 q 232 631 240 610 q 242 639 239 638 l 245 642 l 245 641 "},"Æ":{"x_min":19,"x_max":702,"ha":659,"o":"m 400 463 q 598 490 574 490 q 634 454 634 490 q 632 441 634 450 l 631 437 l 612 414 q 420 401 480 414 q 500 148 446 313 q 582 193 510 152 q 631 236 609 208 q 639 240 634 237 l 646 244 q 666 253 659 253 q 689 243 677 253 q 702 222 702 233 l 702 191 q 517 86 691 187 q 481 75 498 75 q 428 91 468 75 q 430 118 431 109 q 348 391 405 205 q 185 371 295 382 q 166 369 178 371 q 147 367 154 367 l 118 367 q 94 154 110 297 q 65 143 74 143 l 54 143 q 19 165 35 143 l 19 183 q 24 193 21 186 q 50 401 50 350 q 66 535 61 477 q 72 598 67 552 q 94 734 77 634 l 96 740 q 131 934 107 823 q 131 965 133 947 q 204 992 151 992 q 211 990 207 992 l 219 990 q 349 989 235 989 q 427 989 351 989 l 503 989 q 521 996 518 996 q 554 986 533 996 q 554 959 554 976 q 554 932 554 941 q 516 920 520 920 q 502 924 507 920 q 442 929 447 929 l 432 929 q 411 928 421 928 l 255 928 q 251 927 254 927 q 315 734 268 886 l 400 463 m 127 428 q 329 451 232 428 l 275 618 q 272 644 275 636 q 192 886 198 874 q 160 703 171 764 q 127 437 127 515 l 127 428 "},")":{"x_min":73,"x_max":350.6875,"ha":394,"o":"m 319 288 q 292 186 311 254 q 262 122 288 174 q 251 91 259 116 q 247 86 250 87 l 244 83 q 237 72 243 80 q 215 73 229 72 q 192 75 201 75 l 186 83 q 178 104 178 93 q 198 140 178 119 q 235 222 203 151 q 248 281 239 242 q 284 466 284 426 q 255 629 284 527 q 194 781 226 731 l 172 814 q 78 929 154 853 q 73 964 73 946 q 75 954 77 956 l 85 968 q 119 977 116 977 q 156 952 133 977 q 203 892 172 932 q 243 827 228 860 q 312 666 300 732 q 350 459 350 577 q 319 288 350 352 "},"Å":{"x_min":3,"x_max":523,"ha":514,"o":"m 239 888 q 205 857 227 878 q 145 844 171 844 q 47 895 103 844 q 19 938 35 906 q 3 986 3 971 q 7 1001 3 992 l 8 1007 q 28 1059 11 1026 q 88 1100 65 1100 q 98 1098 92 1100 l 110 1097 q 138 1093 117 1095 q 175 1076 148 1087 l 179 1074 q 266 969 266 1045 q 239 888 266 923 m 446 218 q 523 20 477 115 q 520 7 523 13 l 520 6 l 514 -4 q 477 -16 499 -16 q 440 6 460 -16 q 402 124 439 13 q 372 212 394 149 l 368 212 q 293 203 357 212 l 219 194 q 192 191 209 194 q 166 189 175 189 q 125 191 153 189 q 125 -57 125 67 q 94 -67 110 -67 q 53 -33 53 -67 q 53 19 53 -16 q 53 70 53 55 q 97 495 53 209 q 97 827 97 587 q 134 848 120 845 l 156 852 q 166 854 166 852 q 138 918 166 858 l 160 838 q 170 841 167 841 q 173 839 173 841 l 173 841 q 166 863 171 842 l 157 850 q 153 848 155 849 l 153 848 q 174 857 164 857 q 208 832 201 857 q 352 453 235 728 q 415 297 368 413 l 419 287 q 424 291 420 288 q 453 300 447 300 q 469 295 457 300 q 494 294 476 294 q 503 271 494 281 q 483 235 485 238 q 449 218 469 218 l 446 218 m 201 961 q 199 961 200 963 q 197 971 199 965 l 195 979 q 193 986 195 982 q 174 1007 188 999 q 123 1029 138 1029 q 109 1024 119 1029 q 94 1020 99 1020 q 80 1023 88 1020 q 68 999 68 1004 l 68 976 q 101 929 74 960 q 154 906 133 906 q 181 921 164 906 q 196 946 199 936 l 201 961 m 171 710 l 131 260 l 148 258 q 345 281 179 258 q 171 710 284 424 "},"'":{"x_min":93,"x_max":199,"ha":331,"o":"m 155 950 q 121 972 133 950 q 131 1001 122 984 l 128 1002 q 109 1011 125 1004 q 93 1043 93 1034 q 116 1081 93 1063 q 159 1100 139 1100 q 184 1090 166 1100 q 190 1068 186 1083 q 199 1022 199 1040 q 188 977 199 1000 q 155 950 174 950 "},"ø":{"x_min":30,"x_max":583,"ha":617,"o":"m 164 215 q 114 140 141 186 q 91 131 106 138 q 56 145 79 137 l 56 163 q 106 251 56 179 q 30 409 30 318 q 100 581 30 469 q 291 690 159 654 q 310 693 302 693 q 421 651 335 693 q 500 777 451 691 q 535 803 521 803 q 570 789 550 803 q 573 762 573 776 q 570 736 573 750 q 478 613 555 726 q 573 476 548 548 q 583 413 583 418 q 513 283 583 349 q 385 201 453 224 q 294 186 341 186 q 164 215 219 186 m 490 488 q 449 544 475 506 l 433 556 q 202 269 328 431 q 286 250 256 250 l 305 250 q 427 301 352 250 q 511 415 511 358 q 490 488 511 434 m 145 305 q 258 452 183 361 l 377 595 q 287 626 328 626 q 163 552 228 626 q 98 416 98 477 q 145 305 98 355 "},"T":{"x_min":37.75,"x_max":628,"ha":585,"o":"m 371 944 l 436 944 q 450 946 438 944 q 473 948 462 948 l 509 948 q 556 944 531 948 q 588 950 576 950 q 626 941 599 950 q 628 920 628 930 q 619 879 628 898 q 360 879 524 879 q 358 865 358 876 q 344 604 358 755 q 326 334 326 409 l 326 223 l 329 218 q 332 202 332 208 q 312 172 332 190 l 262 172 q 246 191 259 184 l 246 216 q 252 233 246 222 q 262 372 262 273 q 266 516 262 499 q 287 666 270 556 l 287 717 q 287 873 287 804 l 287 880 l 291 882 l 288 882 q 247 882 274 882 q 206 882 220 882 l 119 882 q 40 905 55 882 l 37 913 q 37 927 39 916 q 50 946 40 933 q 81 954 67 954 q 103 950 89 954 q 126 946 118 946 q 177 946 150 946 l 231 946 q 289 947 217 947 q 281 962 288 950 q 312 985 297 980 l 316 986 q 333 991 329 991 q 351 985 337 991 q 372 946 364 971 l 371 944 "},"a":{"x_min":22,"x_max":684.921875,"ha":690,"o":"m 536 390 q 505 316 528 363 q 234 112 380 132 l 230 111 q 216 108 222 108 q 206 111 212 108 q 199 114 200 114 l 197 112 q 185 111 189 111 q 94 140 172 111 q 22 323 22 201 q 71 463 22 398 q 237 598 146 544 q 437 664 346 664 q 472 652 453 664 l 475 653 q 491 658 483 658 q 558 588 544 658 q 577 479 554 545 q 681 177 601 341 q 684 142 685 155 q 683 151 681 149 l 673 138 q 646 132 654 132 q 604 158 624 132 q 606 167 606 164 l 607 170 l 607 176 q 589 226 607 173 q 536 390 584 241 m 476 593 l 469 601 q 450 611 461 609 l 441 612 q 437 614 440 614 q 380 600 427 614 q 324 582 333 587 q 222 516 286 561 q 174 481 203 498 q 85 320 85 401 q 201 169 85 169 q 212 170 206 169 q 222 172 218 172 q 301 201 259 172 q 370 251 320 215 q 452 359 427 316 q 489 490 489 422 q 496 516 496 500 q 476 593 496 533 "},"=":{"x_min":127.828125,"x_max":471,"ha":510,"o":"m 420 610 q 403 611 415 610 q 386 613 392 613 q 344 613 385 613 l 303 613 q 296 610 299 613 q 281 610 288 610 l 254 610 q 234 612 247 610 q 215 614 221 614 q 164 614 186 614 l 153 623 l 148 626 q 139 633 145 628 q 137 642 139 639 l 136 644 l 136 657 q 182 678 164 678 q 192 676 186 678 l 202 675 q 223 670 215 670 q 333 670 303 670 q 436 678 347 670 q 456 641 456 659 q 420 610 456 610 m 435 474 q 348 474 412 474 l 236 474 q 202 474 226 474 l 176 474 q 127 508 145 474 q 164 535 138 518 q 290 535 241 535 l 468 535 q 469 514 468 530 q 471 490 471 498 q 435 474 449 474 "},"N":{"x_min":35,"x_max":653,"ha":684,"o":"m 578 921 l 578 930 q 612 944 603 944 q 640 932 627 944 q 653 905 653 920 q 650 891 653 899 q 647 881 647 882 q 618 616 647 838 q 608 518 615 591 l 591 338 q 597 321 591 337 q 600 292 603 306 q 581 274 595 280 l 554 263 q 541 271 547 268 l 537 274 q 529 280 535 275 q 411 474 468 371 q 272 671 370 548 q 192 762 236 716 l 124 831 l 124 852 l 120 552 q 112 439 112 552 q 112 368 112 402 q 109 305 112 335 l 105 299 q 83 287 95 287 l 51 287 q 44 295 46 293 l 42 299 l 35 306 q 38 321 35 316 l 38 325 q 55 553 38 424 l 55 785 q 59 885 55 894 q 50 907 50 903 q 60 935 50 916 q 97 947 93 947 q 109 944 102 947 l 110 944 q 220 819 149 895 q 343 685 257 780 q 460 518 383 632 q 544 378 522 413 q 565 381 551 380 l 565 894 l 578 894 q 574 906 571 903 q 571 910 572 907 q 578 921 572 913 "},"2":{"x_min":28.21875,"x_max":451,"ha":461,"o":"m 171 284 q 412 314 385 314 q 451 274 451 314 q 408 240 451 240 q 392 241 403 240 q 376 243 381 243 q 150 215 303 243 q 124 208 148 215 q 98 203 109 203 l 71 203 q 50 235 50 211 q 52 247 50 240 l 52 248 q 236 509 174 370 q 242 541 236 523 q 251 612 251 598 q 225 691 251 674 q 147 702 207 702 q 110 688 140 700 q 79 669 94 669 q 40 673 60 669 q 28 710 36 684 q 99 760 60 748 q 186 769 128 769 q 286 727 250 769 q 323 618 323 685 q 314 541 323 613 l 305 530 q 309 531 306 530 q 253 405 295 448 l 251 397 q 181 304 230 362 q 171 284 178 294 "},"j":{"x_min":11,"x_max":469.71875,"ha":489,"o":"m 315 700 q 241 729 272 700 q 211 803 211 758 q 225 874 211 839 q 274 917 243 917 q 292 907 288 917 l 291 909 q 281 914 284 909 l 272 910 q 270 903 273 907 l 270 904 q 268 918 268 909 q 308 939 296 939 q 389 879 333 939 q 411 818 411 839 q 383 737 411 775 q 315 700 356 700 m 467 0 q 469 -11 467 -9 q 456 -111 464 -46 q 447 -127 449 -121 q 402 -216 442 -172 q 334 -246 371 -241 q 215 -258 259 -258 q 89 -225 153 -258 q 11 -145 54 -197 l 11 -131 q 25 -108 11 -118 q 53 -98 40 -98 q 80 -109 64 -98 q 133 -174 91 -149 q 216 -195 171 -195 q 327 -183 262 -195 q 356 -172 344 -181 q 394 -77 380 -156 q 404 31 404 -21 q 353 412 404 251 q 291 630 325 505 q 286 647 286 634 l 286 669 q 294 674 292 673 l 298 677 q 315 686 306 686 l 344 686 q 431 362 388 530 q 454 214 444 318 q 467 93 460 160 l 467 0 m 337 839 l 333 846 q 317 858 325 857 q 291 860 302 857 q 277 811 277 846 q 306 763 277 763 q 337 792 320 763 q 344 813 344 804 q 337 839 344 817 "},"Z":{"x_min":33,"x_max":787.96875,"ha":763,"o":"m 152 254 l 247 286 q 479 360 311 308 q 698 419 541 376 q 747 435 752 435 q 787 393 774 435 q 778 376 783 384 l 775 372 q 770 364 774 370 q 762 362 763 364 q 740 357 747 357 q 731 358 737 357 q 722 360 725 360 q 544 314 714 360 q 416 276 511 305 q 124 178 341 251 q 76 161 95 161 q 69 162 73 161 q 62 164 65 164 q 50 167 56 164 l 52 167 l 43 169 q 33 193 33 179 q 62 237 33 212 q 120 330 99 291 q 164 416 133 355 q 250 622 189 486 q 254 637 251 627 q 290 697 272 664 q 310 741 294 715 q 334 783 332 776 q 386 906 367 851 q 382 908 383 908 q 234 891 381 908 l 87 875 q 43 895 69 875 l 38 905 q 83 954 47 954 q 154 954 102 954 q 386 966 307 954 q 435 978 458 977 q 466 963 453 978 q 479 931 479 949 q 459 897 479 924 q 394 745 442 836 l 318 600 q 275 498 314 591 l 232 398 q 152 254 222 373 "},"u":{"x_min":22,"x_max":578.859375,"ha":591,"o":"m 536 157 q 499 175 512 157 q 482 229 493 193 q 406 391 455 280 q 368 206 406 283 q 230 111 306 111 q 182 120 203 111 q 86 198 136 129 q 40 333 51 262 q 22 527 22 455 q 26 579 22 540 q 22 631 28 609 q 65 654 54 654 q 100 640 72 652 q 91 512 91 572 q 110 338 91 440 q 112 334 110 337 l 112 331 q 129 272 126 280 q 159 218 140 241 q 230 175 194 175 q 280 199 256 175 q 314 249 305 223 q 346 402 346 340 q 317 655 346 505 q 295 689 316 662 q 348 739 311 739 q 378 716 366 739 l 379 712 q 385 707 380 712 q 453 467 385 645 q 505 340 465 434 q 578 198 524 276 q 536 157 570 157 "},"1":{"x_min":48.9375,"x_max":144,"ha":190,"o":"m 139 220 l 138 218 q 104 189 119 189 q 76 209 92 189 l 81 233 q 68 232 80 232 q 68 539 68 361 q 68 696 68 622 l 54 701 q 48 719 53 705 q 90 753 56 753 q 122 721 122 753 l 122 351 l 122 263 q 144 240 122 257 q 139 220 144 229 "},"k":{"x_min":38,"x_max":397.15625,"ha":414,"o":"m 160 312 q 120 288 154 310 q 108 184 108 205 l 108 76 q 111 45 108 66 q 114 15 114 25 q 81 -3 100 -3 q 38 19 59 -3 l 38 33 q 43 50 38 44 q 43 84 43 61 q 43 118 43 107 q 55 295 43 137 l 51 299 q 60 338 48 321 q 73 606 73 388 q 89 770 73 628 l 96 846 l 96 878 q 132 894 116 894 q 171 853 157 894 q 164 845 168 852 q 144 655 144 753 q 144 518 144 617 q 126 362 144 517 q 244 424 209 402 q 363 498 361 498 q 397 475 376 498 l 397 442 q 391 435 392 438 l 390 432 l 382 426 l 373 426 q 220 340 321 396 l 220 335 q 312 187 267 249 q 384 84 336 154 l 384 59 q 350 46 359 46 q 323 50 347 46 q 258 147 309 70 q 160 312 196 238 "},"<":{"x_min":41.96875,"x_max":389,"ha":386,"o":"m 376 177 l 365 172 l 367 172 q 354 169 361 169 q 319 185 346 169 q 160 316 269 241 q 41 423 90 374 q 232 691 89 492 q 257 742 235 694 q 291 758 286 758 q 321 744 295 758 l 321 706 l 131 433 l 134 428 q 386 231 156 395 l 386 223 l 387 220 q 389 208 389 212 q 376 177 389 198 "},"t":{"x_min":17.828125,"x_max":319,"ha":349,"o":"m 199 363 q 291 384 234 368 q 319 341 319 355 q 317 328 319 335 l 316 327 q 302 311 309 313 l 299 311 q 255 305 284 305 q 237 303 249 305 q 219 302 225 302 q 199 298 214 302 q 199 89 199 194 q 200 63 199 81 q 202 35 202 45 q 194 30 194 31 l 189 27 q 173 19 180 19 q 139 25 162 19 l 130 38 l 130 34 l 128 37 q 124 52 124 45 q 130 99 124 46 l 130 184 l 134 188 q 139 207 136 196 l 139 284 l 139 299 q 103 294 137 294 l 47 294 q 30 308 43 296 q 17 315 28 311 q 39 350 28 341 q 143 355 77 355 q 143 382 144 368 q 134 875 134 396 q 132 895 130 884 q 177 904 142 899 q 203 870 189 898 q 199 767 199 860 l 199 454 q 199 363 199 404 "},"W":{"x_min":19,"x_max":917,"ha":940,"o":"m 821 402 q 821 842 821 570 q 837 941 837 867 q 882 958 854 951 l 894 953 q 917 915 917 934 q 910 891 917 905 q 894 752 905 855 q 878 333 878 567 q 888 324 876 327 l 888 295 q 840 272 853 272 q 807 284 826 272 q 803 294 804 291 l 802 298 q 800 302 802 301 q 678 466 740 377 q 483 752 627 540 q 434 812 464 780 q 387 649 426 783 q 355 551 379 624 q 271 254 318 435 l 271 238 q 260 205 271 220 q 223 200 246 200 q 185 220 216 200 q 186 236 185 226 q 188 251 188 245 q 180 292 186 260 l 157 416 q 140 510 149 463 q 93 662 136 520 l 31 869 q 19 888 28 878 l 19 910 q 61 929 47 929 l 69 929 q 81 926 77 929 l 82 925 q 78 926 80 925 l 92 916 q 205 545 116 824 q 234 394 222 449 q 266 510 250 455 q 368 851 324 698 q 373 888 373 869 q 422 915 394 915 q 462 880 437 915 q 520 817 483 860 q 821 402 618 669 "},"v":{"x_min":33,"x_max":417,"ha":436,"o":"m 262 261 q 338 653 293 447 q 333 666 341 660 l 333 686 q 375 717 360 717 q 417 690 384 717 l 417 669 q 387 559 400 654 q 376 515 380 539 q 361 439 373 497 q 311 155 311 189 l 311 133 q 271 111 293 111 q 259 112 264 111 l 253 114 l 242 114 q 147 377 200 241 l 100 498 q 53 604 95 504 q 33 644 46 621 l 33 662 q 73 685 53 685 q 111 662 89 685 q 159 516 111 634 q 222 369 191 443 q 262 261 223 368 "},">":{"x_min":95.5625,"x_max":404.53125,"ha":426,"o":"m 234 304 q 171 186 178 220 q 143 175 155 175 q 95 209 113 175 q 175 336 109 227 q 321 568 228 394 q 311 576 317 572 l 201 643 q 101 716 130 686 l 101 730 q 113 749 101 741 l 137 766 q 201 722 155 756 q 369 620 204 720 l 377 618 q 390 619 381 618 q 404 577 395 605 q 234 304 329 447 "},"s":{"x_min":30,"x_max":427,"ha":461,"o":"m 282 161 q 197 181 273 161 q 125 201 161 191 q 61 231 89 210 l 61 258 q 100 285 86 285 q 120 275 108 285 q 135 263 131 265 q 288 219 253 219 q 358 297 358 219 q 232 390 358 390 q 30 471 30 390 q 84 574 30 511 q 138 623 111 606 q 194 657 165 640 q 334 701 216 670 q 364 668 359 684 q 322 636 356 636 q 314 637 319 636 q 306 639 308 639 q 266 623 298 639 q 221 601 246 613 q 160 565 176 581 q 99 474 99 502 q 182 451 99 451 q 353 423 318 451 q 427 292 427 390 q 282 161 427 161 "},"B":{"x_min":54,"x_max":552,"ha":583,"o":"m 275 636 q 286 639 279 639 q 331 627 290 639 q 458 560 403 608 q 522 464 492 530 q 552 353 552 399 q 511 236 552 289 q 458 191 481 205 q 301 120 414 154 q 245 111 268 111 q 116 123 191 111 q 75 147 101 126 q 77 156 77 154 q 62 176 66 165 l 62 199 q 54 217 62 203 l 54 364 q 54 571 54 395 l 54 777 l 54 956 q 58 970 55 965 l 63 975 l 71 982 q 98 975 91 975 q 120 978 105 975 l 140 984 q 217 988 155 988 q 277 988 237 988 q 395 975 307 988 q 444 952 426 970 q 484 917 465 945 q 503 867 503 890 q 466 755 503 809 q 377 688 444 723 q 273 645 319 658 l 256 641 q 275 636 262 640 m 424 870 q 241 926 414 926 q 138 920 169 926 q 115 916 132 919 l 115 763 q 115 697 115 761 q 116 664 116 697 l 134 664 q 279 713 158 672 q 371 754 328 730 q 431 853 431 787 q 424 870 431 863 m 283 569 q 173 585 243 573 q 148 590 150 590 q 127 587 143 590 q 127 480 127 538 l 127 421 l 127 332 q 127 250 127 293 q 132 204 127 207 q 138 195 136 200 q 174 180 165 181 q 215 177 173 180 l 258 177 q 392 224 313 177 q 480 343 480 277 q 422 493 480 426 q 283 569 364 560 "},"?":{"x_min":90,"x_max":498,"ha":512,"o":"m 421 579 q 337 493 398 557 q 312 419 312 465 q 313 385 313 429 q 327 349 327 364 q 310 311 327 338 l 286 311 q 247 340 261 311 l 241 424 q 305 559 241 507 q 315 577 309 562 q 427 764 427 665 q 304 877 427 877 q 294 874 300 877 q 284 872 287 872 q 159 766 159 855 q 182 692 159 738 q 220 622 191 674 q 186 600 199 600 q 149 616 174 600 q 134 647 146 629 q 99 723 117 672 q 90 772 90 751 q 177 908 90 862 q 323 942 240 942 q 450 891 402 942 q 498 761 498 841 q 474 664 498 718 q 421 579 451 609 m 420 150 q 388 72 420 103 q 311 42 357 42 q 237 69 270 42 q 204 138 204 97 q 225 198 204 164 q 269 241 246 232 q 294 245 277 241 q 320 249 312 249 q 425 164 425 249 q 420 150 425 157 m 324 182 q 311 183 320 182 q 298 185 302 185 q 282 169 288 185 q 276 140 276 153 q 310 110 276 110 l 322 110 q 341 132 332 112 q 350 162 350 151 q 324 182 350 182 "},"H":{"x_min":37.890625,"x_max":509,"ha":554,"o":"m 419 926 q 448 953 419 953 q 481 927 467 953 q 483 820 483 946 l 483 723 q 488 665 488 723 l 488 607 q 488 374 488 518 q 488 267 488 359 l 495 266 q 503 253 499 260 q 509 228 500 235 q 507 213 509 217 l 506 209 q 461 175 489 175 q 444 181 454 175 l 439 186 l 431 190 q 429 215 426 202 l 431 221 l 431 224 q 422 288 431 209 q 422 323 422 305 q 416 340 416 329 l 416 585 l 406 585 q 367 581 392 585 q 328 578 342 578 l 249 578 q 127 565 200 578 l 127 552 q 134 472 127 551 l 145 344 q 153 295 145 320 l 158 273 q 161 258 161 262 q 160 244 161 253 l 159 240 l 159 228 q 126 215 130 215 q 97 226 111 215 q 83 252 83 237 l 83 291 q 75 381 83 324 q 60 472 60 447 q 60 676 60 525 q 45 802 60 722 l 37 881 l 37 898 q 72 918 56 918 q 112 890 98 918 q 112 866 112 875 l 112 747 q 125 632 112 715 q 195 638 173 638 l 246 638 q 264 639 249 638 q 293 644 279 640 l 339 644 q 419 656 384 644 q 420 662 419 658 l 421 665 l 421 668 q 419 790 421 654 l 419 926 "},"c":{"x_min":60,"x_max":498,"ha":501,"o":"m 468 625 q 476 630 470 630 q 461 622 472 622 q 428 638 459 622 q 391 658 397 655 q 283 667 357 667 q 224 647 289 667 q 145 560 172 631 q 124 439 124 505 q 213 287 124 328 q 266 272 246 272 l 294 272 q 374 295 323 272 q 406 311 381 297 q 438 325 432 325 q 451 320 444 325 l 454 318 q 468 312 457 316 q 447 252 459 292 q 317 216 427 248 q 295 211 299 211 l 269 211 q 157 247 216 211 q 80 334 94 285 q 60 444 60 365 q 80 561 60 475 q 348 728 119 728 q 478 686 406 728 l 498 667 l 498 642 q 468 625 485 625 "},"&":{"x_min":27,"x_max":433.875,"ha":411,"o":"m 115 377 q 64 439 70 430 q 37 503 51 458 q 27 540 28 532 q 33 590 27 560 q 45 618 36 600 q 120 682 88 667 q 214 698 153 698 q 225 695 220 698 l 236 689 q 261 684 251 684 q 292 658 270 678 q 294 653 294 654 l 296 647 q 307 588 307 625 q 270 476 307 536 q 201 382 235 429 q 262 333 224 368 q 277 326 269 330 l 279 325 q 284 348 284 341 q 276 385 284 362 q 267 416 269 408 q 317 438 296 438 q 330 435 324 438 l 327 435 l 339 426 q 356 350 356 375 q 341 277 356 312 q 423 208 368 255 q 433 173 423 200 q 420 164 423 166 l 417 161 q 410 153 416 158 l 403 153 l 399 151 q 387 150 391 150 q 341 186 354 150 q 301 222 328 198 q 201 185 258 185 l 184 185 q 98 215 169 185 q 76 249 96 220 q 74 262 76 254 q 73 274 73 270 q 115 377 73 323 m 233 624 l 225 636 q 186 645 197 645 q 123 610 151 645 q 96 542 96 576 q 154 430 96 487 q 217 525 178 460 q 238 588 238 567 q 233 624 238 608 m 163 329 q 144 279 144 300 q 198 243 144 243 q 247 262 224 243 q 163 329 199 302 "},"I":{"x_min":79,"x_max":161,"ha":206,"o":"m 159 885 l 155 855 q 145 649 145 780 q 139 587 145 620 l 138 585 l 138 471 q 139 459 138 470 q 139 437 139 446 l 139 353 q 146 331 142 344 q 141 310 141 317 q 113 297 131 297 q 79 334 79 297 q 89 356 79 341 q 89 466 89 390 l 89 619 q 108 888 89 799 q 107 920 107 877 q 139 937 111 924 q 161 902 161 916 q 159 885 161 895 "},"G":{"x_min":30,"x_max":648,"ha":644,"o":"m 466 499 q 341 505 413 505 l 220 505 q 192 523 206 507 l 192 547 q 235 566 225 566 l 600 566 l 627 566 q 648 527 648 546 q 641 499 648 520 l 628 490 q 615 488 619 488 q 571 498 598 488 l 537 498 q 533 486 534 490 q 458 322 512 397 q 315 231 391 231 l 295 231 q 238 245 285 231 q 185 265 191 260 q 144 296 172 276 q 30 570 30 365 q 32 593 30 577 l 36 624 q 84 771 46 699 q 182 887 125 850 q 270 921 193 894 q 345 928 310 928 q 462 901 408 928 q 551 821 523 872 q 549 811 551 814 l 548 804 q 512 787 531 787 q 468 825 497 787 q 349 870 402 870 q 270 855 317 870 q 202 821 224 840 q 125 704 155 777 q 95 565 95 632 q 137 396 95 458 q 277 301 179 333 q 310 295 299 295 q 440 422 385 295 q 468 495 468 485 l 468 498 l 466 499 "},"(":{"x_min":38,"x_max":376,"ha":379,"o":"m 109 421 q 291 78 109 227 q 311 80 296 80 q 343 20 321 60 q 335 9 336 12 l 332 5 q 316 -15 328 0 q 288 -14 310 -14 q 203 60 276 -14 q 117 157 130 135 q 72 239 104 180 q 38 396 38 360 q 73 591 38 505 q 118 682 84 616 q 163 750 145 725 q 211 812 171 763 q 306 910 243 843 q 336 919 324 919 q 376 891 363 919 l 376 871 q 193 674 268 789 q 109 421 109 541 "},"U":{"x_min":23,"x_max":713.359375,"ha":761,"o":"m 712 468 q 698 416 712 437 q 622 239 698 318 q 450 156 546 156 l 424 156 q 333 172 398 156 q 265 193 279 186 q 70 380 112 269 q 24 559 44 450 q 23 652 23 568 q 23 744 23 723 l 23 866 q 61 895 36 895 q 72 893 64 895 q 83 892 79 892 q 98 862 98 878 q 88 728 88 794 q 141 397 88 562 q 209 308 152 362 q 437 225 321 225 q 623 380 558 225 q 637 454 627 398 q 643 593 643 489 q 603 913 643 837 q 595 935 595 928 q 610 959 595 949 q 641 970 626 970 l 659 970 q 678 929 676 942 q 687 861 678 896 q 712 646 712 737 q 713 587 713 608 q 712 564 713 564 q 712 468 712 539 "},"F":{"x_min":43.5625,"x_max":454,"ha":424,"o":"m 158 557 q 184 559 190 559 q 236 564 203 559 q 288 572 276 571 q 322 584 312 584 q 344 572 334 584 q 355 547 355 560 q 333 507 355 529 q 291 511 310 511 q 280 508 286 511 q 269 506 273 506 q 163 492 212 506 l 163 362 q 165 333 163 354 q 167 301 168 312 q 177 245 167 277 l 173 230 q 160 214 169 225 l 153 214 l 149 212 q 135 211 140 211 q 99 227 125 211 q 99 425 99 328 q 97 435 99 428 q 65 802 97 528 q 43 832 55 815 q 49 841 47 840 l 49 846 q 55 860 51 855 l 58 864 l 67 873 q 105 885 85 885 q 112 883 108 885 q 117 882 116 882 q 138 886 120 883 q 320 919 232 904 q 386 929 340 922 q 405 936 399 936 l 435 936 q 454 902 454 916 q 441 860 452 895 q 145 822 274 860 q 132 821 139 821 l 130 821 l 130 814 l 132 802 q 136 773 134 794 l 158 557 "},"r":{"x_min":44,"x_max":482,"ha":486,"o":"m 480 615 l 480 613 q 445 593 463 593 q 405 610 418 593 l 401 616 q 392 627 396 623 q 345 633 364 633 l 315 633 q 221 579 279 623 q 149 504 162 535 q 137 488 146 495 l 137 486 q 139 466 137 481 l 147 419 q 173 248 154 376 q 186 149 176 226 q 194 140 187 147 q 144 97 184 97 q 113 127 124 97 q 67 516 113 237 l 50 609 q 44 654 49 623 l 44 677 l 79 689 q 114 673 96 689 q 118 649 121 661 q 115 637 117 645 q 122 586 117 620 q 215 656 172 627 l 278 687 q 347 697 307 697 q 470 659 411 697 q 473 651 471 654 l 475 645 q 482 626 482 634 q 480 615 482 621 "},":":{"x_min":131.921875,"x_max":229,"ha":289,"o":"m 175 538 q 141 560 161 539 q 131 591 138 564 q 160 623 134 596 q 187 630 180 630 q 226 581 225 630 q 215 544 226 592 l 187 533 q 175 538 180 533 m 181 394 q 148 411 161 394 q 136 448 136 428 q 151 485 136 470 q 188 501 167 501 q 208 492 200 501 q 229 448 229 474 q 215 410 229 427 q 181 394 201 394 "},"x":{"x_min":27.28125,"x_max":449,"ha":464,"o":"m 296 369 q 404 230 345 306 q 441 194 416 218 q 449 166 449 170 q 447 155 449 161 l 447 154 l 441 143 q 410 132 423 132 l 404 132 q 370 148 392 132 q 318 230 355 181 l 257 309 l 258 305 q 164 159 213 233 q 151 130 166 143 q 119 117 136 117 q 79 144 104 117 l 79 156 q 84 173 79 166 l 86 176 l 86 173 l 90 180 q 181 308 137 215 q 219 363 202 337 l 219 366 q 114 522 187 398 q 27 678 92 562 l 39 694 q 68 708 50 708 q 96 702 73 706 q 255 430 170 552 q 339 616 310 528 q 336 633 339 621 q 360 665 340 645 l 375 665 q 421 620 410 665 q 405 601 414 612 q 296 369 360 476 "},"*":{"x_min":95.3125,"x_max":406,"ha":452,"o":"m 233 554 q 229 608 229 571 q 269 635 243 635 q 301 618 284 635 q 297 578 297 604 q 323 589 303 580 q 352 558 352 575 l 352 529 q 299 487 328 516 l 301 486 q 342 492 287 486 l 353 494 q 372 497 375 497 q 401 486 380 497 q 402 465 401 479 q 403 444 403 451 q 366 428 378 428 q 327 429 314 428 l 317 429 q 401 330 342 394 q 406 309 406 315 q 393 284 406 297 q 368 272 380 272 l 354 272 q 323 307 339 272 l 282 364 l 282 316 q 250 296 276 296 q 204 319 235 296 q 222 400 218 372 q 178 327 186 359 q 167 302 174 319 q 136 287 148 287 q 123 288 132 287 l 121 290 l 113 290 l 95 309 q 174 443 132 390 l 171 443 q 113 463 134 443 q 114 483 113 479 l 115 487 q 160 510 138 510 q 173 507 164 510 l 181 504 q 115 614 168 528 q 160 644 130 644 q 183 635 170 644 l 229 564 q 233 554 230 558 "},"V":{"x_min":26.75,"x_max":477.6875,"ha":504,"o":"m 34 896 l 39 904 q 69 914 65 914 q 81 911 73 914 l 84 911 q 95 910 85 910 q 131 796 100 891 l 341 312 q 382 662 382 541 q 382 955 382 830 q 434 978 430 978 q 462 964 450 978 q 477 939 469 951 q 460 910 473 929 q 431 464 460 718 q 398 186 398 166 q 402 177 399 184 l 404 170 q 409 159 407 166 q 362 125 402 125 q 325 148 337 125 q 323 168 325 155 q 201 464 292 245 q 61 798 164 551 q 26 871 53 826 l 26 884 q 34 900 26 896 l 34 900 l 34 896 "},"å":{"x_min":33,"x_max":700,"ha":676,"o":"m 464 787 q 453 751 464 773 q 393 711 442 736 q 352 704 366 704 q 336 707 348 704 q 263 730 297 707 q 226 794 226 757 q 253 865 226 818 q 293 886 270 879 q 345 903 316 903 q 426 877 379 903 q 464 797 464 841 l 464 787 m 690 156 l 685 154 q 667 146 675 146 q 618 167 639 146 q 619 180 618 177 l 621 184 l 621 189 q 596 246 616 201 l 549 409 l 541 387 q 516 330 532 364 q 321 149 441 208 q 226 122 264 122 q 110 153 159 122 q 45 253 56 189 q 33 334 33 283 q 80 481 33 419 q 166 559 99 506 q 262 627 232 612 l 314 653 q 435 686 412 686 q 479 678 455 686 l 487 672 q 486 675 486 673 q 495 662 493 668 l 473 665 q 502 678 484 678 l 507 678 q 555 650 536 678 q 571 592 575 622 q 571 558 571 581 q 694 191 625 326 q 700 162 700 180 q 690 156 691 158 m 342 839 q 308 832 340 837 q 291 795 291 811 q 351 771 291 771 q 399 800 399 771 q 380 828 399 818 q 342 839 362 839 m 490 609 q 483 620 488 615 l 475 629 q 459 631 476 629 l 451 632 q 447 634 449 634 q 423 628 439 634 q 400 622 407 622 q 216 521 325 608 q 101 387 120 445 q 96 338 96 370 q 154 194 96 234 q 216 183 203 183 q 411 298 302 183 q 465 378 459 349 q 479 401 475 388 q 507 534 507 488 q 490 609 507 566 "},"Ø":{"x_min":16,"x_max":912,"ha":896,"o":"m 898 869 q 768 773 881 860 l 771 769 q 804 720 783 753 q 845 569 845 620 q 778 323 845 434 q 629 226 721 256 q 579 207 605 218 q 461 186 493 186 q 156 273 269 186 q 95 218 134 257 q 63 210 76 210 q 19 230 46 210 l 19 253 q 101 320 47 276 q 44 406 59 369 l 18 512 q 16 527 16 523 q 25 594 16 541 q 295 900 62 802 q 484 932 369 932 q 502 924 491 932 l 507 920 q 529 914 514 918 l 624 873 q 712 821 677 849 l 776 873 q 835 931 813 903 q 875 939 864 939 q 912 899 912 939 q 898 869 912 882 m 504 852 q 476 857 502 853 q 450 874 459 860 q 138 691 233 849 q 87 521 87 605 q 107 437 87 485 q 153 363 127 388 q 319 496 254 449 q 376 542 345 516 q 419 570 390 550 q 655 774 424 573 q 504 852 624 802 m 734 689 q 717 720 726 703 q 710 725 714 723 q 492 537 646 667 q 208 316 419 480 q 436 251 304 251 q 465 251 438 251 l 492 251 q 579 272 511 251 q 741 413 707 313 q 761 488 748 434 q 766 545 766 527 q 734 689 766 638 "},"h":{"x_min":41,"x_max":593,"ha":607,"o":"m 588 61 q 579 47 583 53 l 570 47 l 564 46 q 552 45 559 45 q 515 72 519 45 q 518 159 518 92 q 514 310 518 285 q 487 459 507 392 q 413 571 439 571 q 304 543 399 571 q 220 506 272 533 q 145 459 168 479 l 147 459 q 148 467 147 463 q 156 360 148 429 q 166 253 166 286 l 166 170 q 166 140 166 161 q 166 111 166 120 q 181 66 166 106 q 161 38 181 52 q 137 34 130 34 q 121 39 134 34 q 97 65 115 47 q 106 95 106 87 q 102 207 106 91 l 102 322 l 41 812 q 57 839 41 822 l 80 839 q 107 827 87 839 q 140 536 115 730 q 421 632 327 632 q 491 598 464 632 q 532 521 508 579 q 585 275 585 400 q 585 105 585 200 l 591 88 q 593 77 593 80 q 588 61 593 69 "},"0":{"x_min":33,"x_max":449,"ha":491,"o":"m 415 328 q 348 251 393 299 q 236 214 280 214 l 216 214 q 99 264 164 214 q 61 323 72 285 q 36 408 41 355 q 34 423 36 413 q 33 438 33 433 q 35 451 33 442 q 37 463 37 459 q 68 550 42 511 q 125 622 74 561 l 132 630 q 241 696 152 655 q 260 702 253 702 q 291 689 270 702 q 303 685 296 688 l 310 684 q 318 681 313 683 q 413 585 391 617 q 449 456 449 534 q 415 328 449 399 m 294 614 q 275 619 283 618 l 257 635 q 179 586 228 635 q 119 511 136 544 q 102 431 102 477 q 133 327 102 372 q 224 276 168 276 q 314 309 265 276 q 380 458 380 369 q 294 614 380 543 "},".":{"x_min":188,"x_max":281,"ha":262,"o":"m 233 -144 q 201 -129 215 -144 q 188 -96 188 -114 q 204 -64 188 -77 q 241 -52 220 -52 q 269 -65 257 -52 q 281 -96 281 -79 q 266 -130 281 -116 q 233 -144 252 -144 "},"f":{"x_min":13.828125,"x_max":400,"ha":430,"o":"m 131 283 q 129 290 131 286 l 126 305 q 101 574 101 450 q 113 693 101 656 l 114 697 q 147 778 118 720 q 211 828 163 801 q 285 856 258 856 q 352 781 324 856 q 392 563 374 724 q 396 545 392 557 q 400 528 400 534 l 400 507 q 371 488 391 488 q 356 489 366 488 q 341 491 347 491 q 334 499 337 497 l 333 503 q 324 514 330 506 q 288 776 324 654 q 281 785 287 779 l 279 789 q 249 775 269 785 q 164 561 164 733 q 195 297 164 487 q 255 314 216 301 q 283 301 261 314 q 286 282 286 293 q 280 246 286 265 q 243 237 264 237 l 205 237 q 238 122 214 198 l 238 120 q 238 107 239 114 l 238 103 q 237 92 237 100 q 205 81 218 81 q 195 82 201 81 l 191 84 l 182 84 q 140 225 172 106 q 105 216 137 224 l 79 209 q 64 205 68 205 q 22 213 54 205 q 13 230 22 221 q 22 260 22 246 q 131 283 94 278 "},";":{"x_min":169,"x_max":278,"ha":334,"o":"m 224 521 q 184 539 200 521 q 169 583 169 558 q 216 625 169 625 q 251 609 235 625 q 267 573 267 593 q 224 521 267 521 m 233 347 q 199 370 212 347 q 210 402 201 383 l 205 403 l 186 413 q 172 446 172 438 q 193 488 172 469 q 237 508 215 508 q 263 498 244 508 q 270 464 263 489 q 278 424 278 438 q 267 378 278 403 q 233 347 253 347 "},"i":{"x_min":52,"x_max":256,"ha":289,"o":"m 149 593 q 81 618 110 593 q 52 682 52 643 q 105 787 52 733 q 170 794 118 789 q 208 758 184 780 q 256 675 256 705 q 219 613 256 637 q 149 593 188 593 m 79 94 q 93 324 93 273 q 93 361 93 330 q 93 419 93 393 l 93 472 q 83 523 93 501 q 94 533 91 531 l 98 538 q 111 552 105 544 q 157 530 128 547 q 152 434 152 488 q 152 340 152 352 q 152 187 152 330 q 147 72 152 91 q 109 38 143 56 q 85 54 105 41 q 77 80 77 72 q 79 94 77 88 m 181 700 q 140 731 147 731 q 122 711 131 731 q 114 679 114 692 q 124 662 114 671 q 141 653 133 653 l 155 653 q 176 664 162 653 q 191 680 191 675 q 181 700 186 696 "},"6":{"x_min":24,"x_max":454,"ha":476,"o":"m 122 561 q 177 571 151 571 q 286 554 219 571 q 385 512 358 534 q 447 429 425 480 q 454 373 454 400 q 430 264 454 325 q 373 172 406 203 q 260 128 326 128 q 165 151 215 128 q 26 377 51 204 q 24 407 24 397 q 25 414 24 409 l 26 422 l 41 511 q 97 675 61 598 q 144 768 102 696 q 174 786 158 786 q 188 785 178 786 q 202 784 197 784 q 222 743 214 771 q 162 654 172 699 q 122 561 135 594 m 342 462 q 189 504 263 504 q 129 493 166 504 q 113 483 121 487 l 102 477 q 93 401 93 421 q 121 293 93 314 q 174 225 131 257 q 255 194 217 194 q 316 209 278 194 q 379 350 379 264 q 387 366 387 362 q 342 462 387 422 "},"A":{"x_min":21.84375,"x_max":492.359375,"ha":502,"o":"m 140 1000 q 151 1007 136 1007 q 161 1005 155 1007 l 164 1005 q 212 883 183 968 q 391 441 259 743 l 396 441 q 420 452 417 452 q 457 443 424 450 l 467 429 l 467 431 q 470 418 470 425 q 447 380 470 406 q 423 373 435 374 l 417 371 q 470 230 435 320 l 481 209 q 492 181 492 189 l 492 159 q 447 140 473 140 q 411 162 431 140 q 404 202 411 148 q 342 364 385 256 q 194 344 292 357 q 99 344 163 344 q 99 101 99 234 q 62 86 78 86 q 35 97 48 86 q 21 123 21 109 q 25 149 21 131 q 30 176 30 167 l 30 267 q 43 468 30 302 q 71 678 46 493 q 71 897 71 682 q 87 974 81 922 q 127 1002 93 989 q 140 1000 136 1002 m 134 906 q 129 914 133 910 l 151 922 q 132 610 132 811 l 107 413 q 125 412 112 413 l 144 412 q 231 420 178 412 q 317 432 303 431 q 220 668 313 446 q 134 906 164 804 "},"n":{"x_min":46,"x_max":607.5625,"ha":617,"o":"m 123 181 l 122 181 q 128 164 128 174 q 119 138 128 156 q 93 133 106 133 q 54 142 74 133 q 54 316 54 259 l 54 472 q 51 484 54 480 l 51 632 q 46 648 46 644 q 79 683 46 683 q 123 666 91 683 q 122 643 123 656 l 122 611 q 181 641 140 622 q 319 675 271 675 q 389 659 351 675 q 441 607 411 644 q 536 380 497 511 q 607 141 555 313 q 562 111 588 111 q 536 122 547 111 l 524 134 q 524 180 527 146 l 475 345 q 324 614 396 614 q 218 588 279 614 q 119 538 204 583 l 119 536 q 118 533 118 536 q 119 513 118 526 q 120 494 120 501 l 120 403 l 123 401 q 123 355 123 370 q 123 181 123 237 "},"O":{"x_min":22.203125,"x_max":798,"ha":833,"o":"m 766 520 q 629 331 731 401 q 403 261 528 261 q 167 327 288 261 q 95 402 126 349 q 49 498 87 416 l 47 502 q 30 570 38 520 q 22 641 22 616 q 25 654 22 645 q 29 668 29 663 q 90 845 29 758 q 227 978 145 924 q 277 999 243 987 l 316 1005 q 348 1023 335 1008 q 460 1033 437 1033 q 581 1014 542 1033 q 737 871 676 970 q 798 665 798 773 q 766 520 798 626 m 531 964 q 475 969 502 969 q 410 966 484 969 q 384 953 393 953 q 371 954 380 953 q 359 955 363 955 q 252 921 284 955 l 246 916 q 90 638 90 756 q 137 458 90 564 q 268 348 170 384 q 388 322 339 322 l 420 322 q 506 338 448 322 q 574 372 546 349 q 661 456 634 417 q 713 566 687 494 q 730 666 730 638 q 675 848 730 763 q 531 964 619 938 "},"3":{"x_min":18.78125,"x_max":484,"ha":517,"o":"m 315 573 q 461 451 423 549 q 477 409 466 442 q 484 355 484 374 q 482 346 484 352 l 481 334 q 477 308 479 327 q 442 240 471 295 q 403 209 429 227 l 403 207 q 313 175 326 175 l 291 175 q 251 177 279 175 q 148 219 223 180 q 62 298 62 265 q 98 340 62 321 l 114 340 q 134 332 123 332 l 134 316 l 135 311 q 136 302 135 308 q 296 239 210 239 q 381 270 348 239 q 415 354 415 301 q 370 466 415 419 q 262 513 326 513 l 243 513 q 214 505 234 513 q 184 496 193 496 q 139 535 139 496 q 165 569 139 551 q 237 598 171 572 q 286 651 258 607 q 291 687 291 670 q 215 758 291 758 q 139 740 178 758 q 90 686 90 717 l 100 677 q 98 660 100 672 q 97 643 97 648 q 61 628 76 628 q 34 637 41 628 l 33 639 q 18 645 29 641 l 18 666 q 21 679 18 673 l 22 681 q 21 695 21 687 q 25 726 21 708 q 215 819 87 819 q 363 673 363 819 q 326 587 363 649 l 315 573 "},"]":{"x_min":48.828125,"x_max":299,"ha":333,"o":"m 219 254 l 219 255 q 204 487 204 355 l 204 572 q 201 593 204 579 q 199 613 199 607 q 186 732 199 657 q 131 732 149 732 l 98 732 q 48 750 72 727 q 50 772 48 768 l 51 776 q 92 797 73 797 q 105 794 96 797 q 118 792 114 792 q 176 795 141 792 l 236 802 q 264 738 264 794 l 264 508 l 264 412 q 284 272 264 351 q 292 252 285 268 q 299 229 299 236 q 288 205 299 218 q 268 193 278 193 q 253 194 262 193 q 238 196 243 196 q 171 182 223 196 l 114 167 q 79 196 96 167 l 79 216 q 103 234 92 223 q 219 254 142 241 "},"m":{"x_min":30.578125,"x_max":961,"ha":965,"o":"m 108 647 q 157 677 125 658 q 285 714 246 714 q 389 619 345 714 q 453 667 412 637 q 539 704 504 694 q 655 725 621 725 q 774 654 720 725 q 847 525 805 613 q 890 409 861 495 q 961 201 925 301 q 959 190 961 197 q 958 179 958 183 q 917 161 933 161 q 883 179 899 161 q 876 222 881 194 q 773 525 842 327 q 712 625 732 601 q 638 662 680 662 q 512 626 577 662 q 453 586 493 612 q 430 552 440 571 q 419 545 426 550 q 458 359 424 527 q 482 173 458 354 l 483 170 q 496 165 486 169 l 490 144 q 442 121 482 121 q 400 136 424 121 q 351 551 400 433 l 345 565 q 286 653 310 653 q 228 637 270 653 q 176 611 186 621 q 117 565 145 593 l 117 562 l 118 558 l 119 548 q 131 527 122 532 q 131 148 131 401 l 145 140 l 147 136 q 151 127 147 133 q 107 98 132 98 q 60 115 72 98 l 60 568 q 37 688 47 597 q 31 739 37 708 q 40 770 27 757 q 70 784 53 784 q 108 771 75 782 q 108 647 108 730 "},"9":{"x_min":19,"x_max":464.328125,"ha":512,"o":"m 337 400 l 334 393 q 328 388 332 392 l 320 379 q 204 344 284 344 q 89 381 138 344 q 28 482 39 418 q 19 542 19 499 q 30 603 19 586 l 30 622 q 100 706 51 666 q 194 762 148 747 q 290 799 226 775 q 334 807 296 800 q 359 816 352 816 q 400 800 379 816 q 430 759 409 787 q 448 472 448 702 q 448 411 448 457 q 464 236 448 281 q 441 211 457 227 q 418 212 433 211 q 396 213 404 213 q 386 240 388 228 q 386 261 385 249 q 388 291 388 275 q 384 341 384 307 l 384 377 l 384 461 q 337 400 360 418 m 329 747 l 325 747 q 255 715 299 747 q 228 707 246 714 q 133 644 153 662 q 85 545 85 600 q 142 425 85 456 q 185 409 174 409 l 206 409 q 325 506 280 409 q 360 660 360 582 q 348 728 360 707 l 349 731 l 345 731 q 329 747 332 731 "},"l":{"x_min":35.328125,"x_max":161.90625,"ha":188,"o":"m 126 -11 q 113 -9 122 -11 q 99 -8 103 -8 q 95 10 97 5 l 95 16 q 88 33 95 21 q 97 46 97 41 q 82 63 97 51 q 68 80 68 75 q 68 233 68 212 l 68 257 q 68 383 68 291 q 68 818 68 494 q 35 852 43 830 q 70 881 54 875 q 101 875 82 875 q 107 852 101 861 l 107 736 q 117 612 107 723 q 134 439 134 559 q 134 76 134 351 q 161 11 152 50 q 126 -11 136 -11 "},"8":{"x_min":22,"x_max":501,"ha":530,"o":"m 214 851 q 223 852 218 852 q 275 834 248 852 q 320 801 297 818 q 372 673 372 744 q 334 573 372 625 l 347 568 q 441 489 386 551 q 464 457 446 483 q 491 401 472 439 q 501 328 501 333 q 490 254 501 279 q 487 233 490 236 q 446 149 477 191 q 378 91 415 107 q 286 64 347 64 l 260 64 q 162 93 226 64 q 122 115 158 94 q 50 205 79 147 q 22 319 22 264 q 125 536 22 451 q 43 682 43 583 q 57 743 43 710 q 83 803 60 769 q 129 846 106 836 q 188 864 174 864 q 214 851 193 864 m 300 701 q 238 778 278 760 q 192 796 221 780 l 188 799 q 133 753 158 799 q 112 678 112 712 q 176 585 112 611 q 196 586 182 585 q 217 588 210 588 q 238 598 230 598 q 245 597 241 598 q 251 596 249 596 q 285 626 268 596 q 303 678 303 657 q 300 701 303 672 m 207 512 q 137 454 197 511 q 88 321 88 389 q 122 211 88 261 q 214 146 158 157 q 251 134 221 144 q 289 128 274 128 q 396 196 354 128 q 434 325 434 255 q 427 375 434 321 q 385 448 415 411 q 321 500 353 491 q 294 512 316 501 q 264 524 272 524 q 241 517 257 524 q 218 510 225 510 q 207 512 211 510 "},"p":{"x_min":33,"x_max":493,"ha":522,"o":"m 71 234 q 59 240 67 236 l 59 250 l 57 253 q 56 265 56 261 q 67 290 56 279 q 67 369 67 293 q 41 630 67 373 q 37 651 41 637 q 33 672 33 665 q 36 684 33 679 l 36 683 l 41 694 q 77 705 57 705 q 108 658 108 705 l 108 655 q 122 657 113 657 l 279 657 q 388 626 359 640 q 470 544 438 601 q 493 432 493 486 q 455 310 493 369 q 404 271 437 297 q 351 244 374 251 q 224 218 261 218 q 205 216 218 218 q 185 215 192 215 q 160 219 182 215 l 135 223 l 135 222 q 132 218 133 221 l 135 230 q 137 83 137 218 l 137 -24 q 139 -41 137 -30 q 140 -58 140 -52 l 140 -88 q 148 -103 140 -97 l 148 -131 q 111 -146 128 -146 q 71 -127 91 -146 l 71 234 m 113 590 l 113 577 l 125 447 q 133 289 133 361 q 207 281 176 281 q 217 282 210 281 l 236 286 q 317 304 277 294 q 391 346 358 314 q 424 430 424 378 q 205 596 424 596 q 115 590 129 596 l 113 590 "},"4":{"x_min":5,"x_max":450,"ha":477,"o":"m 310 520 l 321 520 q 369 527 342 520 q 409 534 397 534 l 424 534 q 450 475 450 513 q 409 456 422 456 q 325 454 333 456 q 334 239 325 323 q 348 209 337 220 q 301 169 335 169 q 264 198 274 169 q 262 324 262 245 q 262 450 262 425 l 150 437 q 55 425 49 425 q 22 437 40 425 q 5 465 5 450 q 40 546 29 517 q 55 620 44 561 q 68 716 59 645 q 64 752 70 728 q 108 779 86 779 q 120 777 115 779 l 122 776 l 119 776 l 128 773 l 131 770 q 141 748 141 760 q 132 678 141 723 q 122 610 122 629 q 93 500 107 545 l 101 500 q 254 516 135 500 q 230 804 254 571 q 264 824 251 824 q 310 811 273 822 q 310 520 310 713 "},"R":{"x_min":8,"x_max":644.359375,"ha":631,"o":"m 330 631 q 362 584 343 609 q 536 366 398 538 q 644 224 644 234 q 643 211 644 220 l 641 207 l 641 196 q 603 184 607 184 q 562 204 581 184 q 422 406 559 231 q 263 607 369 473 q 257 612 261 609 q 212 596 249 612 q 167 581 174 581 q 150 580 159 581 q 150 389 150 525 q 153 303 153 399 q 153 214 153 279 q 161 184 153 204 q 169 153 169 164 q 155 121 169 149 l 108 121 q 86 146 92 132 q 86 364 86 274 l 85 360 q 84 474 84 385 q 79 567 84 555 l 94 560 q 51 547 53 547 q 8 574 21 547 l 8 592 q 70 621 16 609 l 77 624 q 77 681 77 649 l 77 739 l 77 838 l 70 896 q 71 935 71 909 q 55 956 67 942 q 56 971 55 967 l 57 975 q 86 995 70 988 q 195 995 124 995 q 465 953 366 995 q 564 822 564 911 q 551 789 564 809 q 538 760 539 770 q 447 678 505 709 l 330 631 m 145 642 q 251 674 177 653 q 488 838 488 743 q 445 896 488 877 q 400 912 430 903 q 232 937 260 937 q 145 931 191 937 l 145 642 "},"o":{"x_min":27,"x_max":539,"ha":584,"o":"m 456 177 q 387 127 437 148 q 304 108 342 108 q 288 109 299 108 q 273 111 278 111 q 255 115 269 111 q 163 144 180 137 q 82 198 114 165 q 27 349 27 256 q 61 494 27 412 q 141 621 96 576 l 184 666 q 244 714 202 680 q 270 727 259 727 q 297 721 284 727 q 341 710 314 724 q 378 697 368 697 q 439 656 399 688 q 461 641 454 645 l 461 630 q 539 399 539 513 q 514 281 539 351 q 456 177 488 207 m 372 624 q 335 638 365 631 q 323 646 329 644 q 297 653 314 648 l 285 656 q 281 658 284 658 q 169 558 255 658 q 112 452 152 537 q 93 348 93 387 q 247 184 93 216 q 308 174 293 174 q 413 223 371 174 q 470 406 470 303 q 372 624 470 546 "},"5":{"x_min":20.234375,"x_max":470,"ha":509,"o":"m 47 672 l 42 677 l 42 703 q 54 712 50 703 q 158 715 120 715 l 409 715 q 413 697 411 698 l 417 691 q 424 673 424 681 l 424 645 q 394 628 407 628 q 371 634 387 628 q 349 641 356 641 q 196 655 215 655 q 160 653 173 655 q 122 653 134 650 q 128 622 122 642 q 196 625 160 625 q 362 593 289 625 q 470 416 470 523 q 434 281 470 347 q 401 240 419 260 q 294 184 376 220 q 221 172 267 172 q 105 223 167 172 q 36 330 44 274 q 40 327 37 330 l 32 338 q 20 385 29 366 q 48 426 27 409 l 74 426 q 95 391 95 414 q 96 371 96 377 q 140 279 96 323 q 232 236 184 236 q 317 257 275 236 q 377 314 358 278 q 401 409 401 357 q 392 457 401 442 q 296 549 364 532 q 244 556 270 556 l 180 556 q 139 554 176 556 q 122 545 134 553 q 101 544 115 544 q 70 554 80 544 q 50 586 63 560 q 57 613 57 598 l 46 672 l 47 672 "}}}
